<!-- Generator: Adobe Illustrator 18.0.0, SVG Export Plug-In  -->
<svg version="1.1"
	 xmlns="http://www.w3.org/2000/svg" xmlns:xlink="http://www.w3.org/1999/xlink" xmlns:a="http://ns.adobe.com/AdobeSVGViewerExtensions/3.0/"
	 x="0px" y="0px" width="74.3px" height="74.3px" viewBox="0 0 74.3 74.3" enable-background="new 0 0 74.3 74.3"
	 xml:space="preserve">
<defs>
</defs>
<path fill="#2980B9" d="M37.4,61.1c-13.3,0-24.1-10.8-24.1-24.1s10.8-24.1,24.1-24.1S61.5,23.7,61.5,37S50.7,61.1,37.4,61.1z
	 M37.4,15.3c-12,0-21.7,9.7-21.7,21.7s9.7,21.7,21.7,21.7S59.1,49,59.1,37S49.3,15.3,37.4,15.3z"/>
<polygon fill="#2980B9" points="35,47.6 33.3,45.9 41.8,37.3 33.1,28.6 34.8,26.9 45.2,37.3 "/>
<rect x="0" y="0" fill="none" width="74.3" height="74.3"/>
</svg>
