<!-- Generator: Adobe Illustrator 18.0.0, SVG Export Plug-In  -->
<svg version="1.1"
	 xmlns="http://www.w3.org/2000/svg" xmlns:xlink="http://www.w3.org/1999/xlink" xmlns:a="http://ns.adobe.com/AdobeSVGViewerExtensions/3.0/"
	 x="0px" y="0px" width="74.3px" height="74.3px" viewBox="0 0 74.3 74.3" enable-background="new 0 0 74.3 74.3"
	 xml:space="preserve">
<defs>
</defs>
<path fill="#2980B9" d="M37.1,54.7c-9.8,0-17.7-7.9-17.7-17.7s7.9-17.7,17.7-17.7c9.8,0,17.7,7.9,17.7,17.7S46.9,54.7,37.1,54.7z
	 M37.1,21.7c-8.4,0-15.3,6.9-15.3,15.3s6.9,15.3,15.3,15.3S52.4,45.4,52.4,37S45.6,21.7,37.1,21.7z"/>
<polygon fill="#2980B9" points="38.3,43.6 31.9,37.3 38.4,30.8 40.1,32.5 35.4,37.3 40,41.9 "/>
<rect x="0" y="0" fill="none" width="74.3" height="74.3"/>
</svg>
