<!-- Generator: Adobe Illustrator 18.0.0, SVG Export Plug-In  -->
<svg version="1.1"
	 xmlns="http://www.w3.org/2000/svg" xmlns:xlink="http://www.w3.org/1999/xlink" xmlns:a="http://ns.adobe.com/AdobeSVGViewerExtensions/3.0/"
	 x="0px" y="0px" width="308.1px" height="308.1px" viewBox="0 0 308.1 308.1" enable-background="new 0 0 308.1 308.1"
	 xml:space="preserve">
<defs>
</defs>
<path fill="#2980B9" d="M155,253.4c-55.1,0-100-44.9-100-100s44.9-100,100-100s100,44.9,100,100S210.2,253.4,155,253.4z M155,63.4
	c-49.6,0-90,40.4-90,90s40.4,90,90,90s90-40.4,90-90S204.7,63.4,155,63.4z"/>
<polygon fill="#2980B9" points="145.1,197.4 138,190.3 173.5,154.8 137.1,118.5 144.2,111.4 187.6,154.8 "/>
<rect x="0" y="0" fill="none" width="308.1" height="308.1"/>
</svg>

