<!-- Generator: Adobe Illustrator 18.0.0, SVG Export Plug-In  -->
<svg version="1.1"
	 xmlns="http://www.w3.org/2000/svg" xmlns:xlink="http://www.w3.org/1999/xlink" xmlns:a="http://ns.adobe.com/AdobeSVGViewerExtensions/3.0/"
	 x="0px" y="0px" width="308.1px" height="308.1px" viewBox="0 0 308.1 308.1" enable-background="new 0 0 308.1 308.1"
	 xml:space="preserve">
<defs>
</defs>
<path fill="#2980B9" d="M154,226.9c-40.5,0-73.5-33-73.5-73.5s33-73.5,73.5-73.5c40.5,0,73.5,33,73.5,73.5S194.6,226.9,154,226.9z
	 M154,89.9c-35,0-63.5,28.5-63.5,63.5s28.5,63.5,63.5,63.5s63.5-28.5,63.5-63.5S189,89.9,154,89.9z"/>
<polygon fill="#2980B9" points="158.8,180.9 132.5,154.6 159.3,127.8 166.4,134.9 146.6,154.6 165.9,173.8 "/>
<rect x="0" y="0" fill="none" width="308.1" height="308.1"/>
</svg>

